<svg version="1.1" id="Layer_1" xmlns="http://www.w3.org/2000/svg" xmlns:xlink="http://www.w3.org/1999/xlink" x="0px" y="0px"
	 width="100%" viewBox="0 0 50 50" enable-background="new 0 0 50 50" xml:space="preserve">
<path fill="#000000" opacity="1.000000" stroke="none" 
	d="
M25.000000,51.000000 
	C17.035887,51.000000 9.071774,51.000000 1.053831,51.000000 
	C1.053831,34.444122 1.053831,17.888042 1.053831,1.000000 
	C8.684354,1.000000 16.373486,1.000000 24.818340,1.287211 
	C22.314518,5.739843 16.159212,7.585245 14.995644,13.429914 
	C15.394325,13.833638 15.793006,14.237361 16.191687,14.641085 
	C18.880516,12.342855 21.569344,10.044625 25.000000,7.112332 
	C25.000000,22.535011 25.000000,36.767506 25.000000,51.000000 
z"/>
<path fill="#000000" opacity="1.000000" stroke="none" 
	d="
M27.000000,1.000000 
	C34.964111,1.000000 42.928226,1.000000 50.946167,1.000000 
	C50.946167,17.555878 50.946167,34.111954 50.946167,51.000000 
	C43.315647,51.000000 35.626518,51.000000 27.121773,50.616936 
	C26.537441,48.641647 26.961203,47.050388 26.969175,45.457043 
	C27.026697,33.963078 26.987881,22.468658 27.021351,10.974505 
	C27.024269,9.971867 27.327122,8.970100 27.533577,7.704910 
	C30.689665,10.204199 33.410095,12.358493 36.130527,14.512788 
	C36.570301,14.031886 37.010075,13.550983 37.449848,13.070082 
	C36.469337,11.708420 35.597012,10.250257 34.486145,9.004870 
	C32.054974,6.279305 29.502769,3.661699 27.000000,1.000000 
z"/>
<path fill="#FFFFFF" opacity="1.000000" stroke="none" 
	d="
M26.666668,1.000000 
	C29.502769,3.661699 32.054974,6.279305 34.486145,9.004870 
	C35.597012,10.250257 36.469337,11.708420 37.449848,13.070082 
	C37.010075,13.550983 36.570301,14.031886 36.130527,14.512788 
	C33.410095,12.358493 30.689665,10.204199 27.533577,7.704910 
	C27.327122,8.970100 27.024269,9.971867 27.021351,10.974505 
	C26.987881,22.468658 27.026697,33.963078 26.969175,45.457043 
	C26.961203,47.050388 26.537441,48.641647 26.653080,50.616936 
	C26.555555,51.000000 26.111111,51.000000 25.333332,51.000000 
	C25.000000,36.767506 25.000000,22.535011 25.000000,7.112332 
	C21.569344,10.044625 18.880516,12.342855 16.191687,14.641085 
	C15.793006,14.237361 15.394325,13.833638 14.995644,13.429914 
	C16.159212,7.585245 22.314518,5.739843 25.287031,1.287211 
	C25.444445,1.000000 25.888889,1.000000 26.666668,1.000000 
z"/>
</svg>