<svg id="Grupo_17" data-name="Grupo 17" xmlns="http://www.w3.org/2000/svg" xmlns:xlink="http://www.w3.org/1999/xlink" width="154.831" height="63.889" viewBox="0 0 154.831 63.889">
  <defs>
    <clipPath id="clip-path">
      <rect id="Rectángulo_14" data-name="Rectángulo 14" width="154.831" height="63.889" fill="#fff"/>
    </clipPath>
  </defs>
  <g id="Grupo_17-2" data-name="Grupo 17" transform="translate(0 0)" clip-path="url(#clip-path)">
    <path id="Trazado_11" data-name="Trazado 11" d="M95.863,19.819H92.115V10.136L86.5,17.931h-.42L80.415,10.17v9.649H76.707V3.9h3.747l5.856,8.243L92.093,3.9h3.77ZM114.247,7.183h-5.975V19.819H104.5V7.183h-6V3.9H114.27Zm19.569,4.6c0,4.892-3.2,8.033-9.388,8.033h-7.477V3.9h7.477c6.191,0,9.388,3.243,9.388,7.886m-3.94,0c0-2.647-1.7-4.6-5.318-4.6H120.7v9.354h3.861c3.622,0,5.318-1.956,5.318-4.751m6.531.062c0-5.193,3.5-8.305,9.2-8.305,5.72,0,9.218,3.135,9.218,8.305,0,5.21-3.537,8.328-9.218,8.328-5.658,0-9.2-3.135-9.2-8.328m14.479,0c0-3.328-2.222-5-5.278-5-3.033,0-5.272,1.672-5.272,5,0,3.345,2.239,5.045,5.272,5.045,3.056,0,5.278-1.7,5.278-5.045M67.71,31.65c0,19.649-12.84,32.24-37.682,32.24H0V0H30.029C54.87,0,67.71,13.016,67.71,31.65" transform="translate(0 0)" fill="#fff"/>
  </g>
</svg>
